<svg width="19" height="17" viewBox="0 0 19 17" fill="none" xmlns="http://www.w3.org/2000/svg">
<g opacity="0.75" clip-path="url(#clip0_2056_31)">
<path d="M17.4625 16.741C17.1841 16.741 16.943 16.6387 16.7395 16.4329C16.0194 15.7071 10.2605 9.8986 9.54093 9.17225C9.33751 8.96708 9.23551 8.72439 9.23551 8.44306C9.23551 8.16229 9.33751 7.91904 9.54093 7.71386C10.2605 6.98808 16.0194 1.17954 16.7395 0.453188C16.943 0.248013 17.1841 0.145142 17.4625 0.145142C17.7409 0.145142 17.982 0.248013 18.1855 0.453188C18.3889 0.658362 18.4909 0.901616 18.4909 1.18238C18.4909 2.63452 18.4909 14.2516 18.4909 15.7037C18.4909 15.9851 18.3889 16.2278 18.1855 16.4329C17.982 16.6387 17.7409 16.741 17.4625 16.741Z" fill="white"/>
</g>
<g opacity="0.75" clip-path="url(#clip1_2056_31)">
<path d="M8.39586 16.741C8.11749 16.741 7.87632 16.6387 7.6729 16.4329C6.95275 15.7071 1.19386 9.8986 0.474276 9.17225C0.270855 8.96708 0.168863 8.72439 0.168863 8.44306C0.168863 8.16229 0.270855 7.91904 0.474276 7.71386C1.19386 6.98808 6.95275 1.17954 7.6729 0.453188C7.87632 0.248013 8.11749 0.145142 8.39586 0.145142C8.67422 0.145142 8.9154 0.248013 9.11882 0.453188C9.32224 0.658362 9.42423 0.901616 9.42423 1.18238C9.42423 2.63452 9.42423 14.2516 9.42423 15.7037C9.42423 15.9851 9.32224 16.2278 9.11882 16.4329C8.9154 16.6387 8.67422 16.741 8.39586 16.741Z" fill="white"/>
</g>
<defs>
<clipPath id="clip0_2056_31">
<rect width="9.48077" height="17" fill="white" transform="matrix(-1 0 0 1 18.5472 0)"/>
</clipPath>
<clipPath id="clip1_2056_31">
<rect width="9.48077" height="17" fill="white" transform="matrix(-1 0 0 1 9.48059 0)"/>
</clipPath>
</defs>
</svg>
