<svg width="41" height="42" viewBox="0 0 41 42" fill="none" xmlns="http://www.w3.org/2000/svg">
<path d="M40.9484 19.9129C40.9251 19.7027 40.9017 19.4809 40.8667 19.2707C40.8083 18.8036 40.7616 18.3248 40.6915 17.8461C40.2128 14.4597 38.9633 11.3536 37.0016 8.63285C35.3201 6.28576 33.1832 4.38241 30.6726 2.98115C28.3956 1.70835 25.885 0.914305 23.1993 0.6107C22.4286 0.517284 21.6345 0.470581 20.8638 0.470581C19.4976 0.470581 18.1431 0.610703 16.7885 0.890953V0.879279L16.59 0.937665C16.2747 1.00773 15.9711 1.07778 15.6559 1.15952C15.2588 1.26461 14.8501 1.39307 14.4531 1.52152C14.0911 1.62661 13.7875 1.72003 13.4956 1.82512C10.3311 2.9578 7.5753 4.86116 5.29827 7.48851C3.02124 10.1042 1.47987 13.1285 0.697505 16.4565C0.148682 18.8036 0.00855549 21.1507 0.265451 23.4394C0.534024 25.7748 1.12955 27.9584 2.04036 29.9202C3.03292 32.0454 4.38746 33.9371 6.05728 35.5369C7.92562 37.3235 10.1209 38.713 12.7716 39.7873C13.9276 40.2544 15.0603 40.4763 16.1113 40.6398C16.6601 40.7565 17.2323 40.8499 17.7928 40.92C17.9913 40.9434 18.1781 40.9667 18.3766 40.9901C18.9838 41.0952 19.7545 41.1419 20.677 41.1419C21.0507 41.1419 21.4127 41.1302 21.7513 41.1185L21.471 41.2353L22.6855 41.0718C23.1992 41.0368 23.6079 40.9784 23.8181 40.9434L23.8765 40.9317C23.9115 40.92 23.9349 40.9083 23.9583 40.8966C25.4996 40.6748 26.9826 40.3128 28.3605 39.799C30.1938 39.1101 31.8987 38.1876 33.405 37.0315C35.2033 35.6536 36.733 33.9838 37.9241 32.0454C39.1151 30.1304 39.9325 28.0986 40.3646 25.985C40.5047 25.2844 40.6098 24.5721 40.7032 23.8715C40.7499 23.5445 40.7966 23.2292 40.8433 22.9023C40.855 22.8439 40.8667 22.7738 40.8784 22.7154L40.9017 22.6103L40.9134 19.983L40.9484 19.9129ZM24.9275 6.70613V6.39086V6.70613C26.4455 6.70613 27.7066 7.97894 27.6949 9.47361C27.6833 10.9683 26.4221 12.2411 24.9275 12.2411C23.4328 12.2411 22.1717 10.9683 22.1717 9.47361C22.1833 7.97894 23.4445 6.70613 24.9275 6.70613ZM27.9985 36.7746C26.9476 38.3744 25.5463 39.5421 23.8532 40.2544C23.4795 40.3011 23.0942 40.3478 22.7088 40.3829C21.3543 40.4996 19.953 40.4879 18.5167 40.3361C18.0146 40.2427 17.5242 40.1727 17.0454 40.1026C16.7885 40.0676 16.5316 40.0325 16.2747 39.9858C14.8034 39.6822 13.3788 39.2151 12.036 38.6079C10.5646 37.9423 9.19842 37.1016 7.97233 36.1207C6.85133 35.2216 5.8471 34.2174 4.983 33.1197C3.94374 31.8002 3.07963 30.3522 2.42571 28.7992C1.8185 27.3396 1.40981 25.95 1.17627 24.5254C1.09453 23.9882 1.02446 23.4277 0.954402 22.8789C0.919371 22.6337 0.896011 22.3885 0.86098 22.1433V19.8312C0.86098 19.8195 0.860977 19.8195 0.872654 19.8078C0.884331 19.7494 0.907691 19.6794 0.907691 19.5976C1.03614 18.0096 1.33974 16.4565 1.80682 15.0086C2.41403 13.1285 3.28981 11.3536 4.43417 9.7305C5.81206 7.76875 7.5286 6.06391 9.52539 4.67433C11.1368 3.55333 12.865 2.68922 14.675 2.08201C14.9786 1.98859 15.2939 1.90686 15.6091 1.82512C15.7609 1.77841 15.9244 1.74338 16.0762 1.69668C16.0295 2.03531 15.9945 2.36227 15.9478 2.68923C15.8077 3.74017 15.6792 4.74439 15.5741 5.74862C15.3756 7.4885 15.2121 9.56703 15.4573 11.6923C15.6675 13.5372 16.1696 15.0669 16.9754 16.3864C17.746 17.6476 18.7036 18.7219 19.8362 19.5626C20.9689 20.415 22.1483 21.2441 23.351 22.0031C23.7364 22.2483 24.1451 22.4235 24.5538 22.5987C24.834 22.7154 25.1026 22.8322 25.3595 22.9723C27.041 23.8598 28.2554 24.9224 29.0728 26.2302C29.8085 27.4096 30.1588 28.7525 30.1121 30.2121C30.007 32.5942 29.3064 34.7895 27.9985 36.7746Z" fill="#263435"/>
</svg>
