<svg width="42" height="42" viewBox="0 0 42 42" fill="none" xmlns="http://www.w3.org/2000/svg">
<path d="M41.0925 39.9614H35.9772C39.8166 36.7258 37.5546 30.4072 32.4937 30.4072H32.0421C32.3558 29.2982 32.1295 28.8544 31.2707 24.9909C30.4831 21.4478 27.828 18.4997 24.1867 17.4386C25.0537 16.8545 25.7313 16.0107 26.1092 15.0201C26.2414 14.9355 26.207 14.9587 27.0202 13.8586C29.8473 10.0344 27.9078 4.95358 23.8949 3.4648V3.01838C23.8949 1.61351 22.752 0.470581 21.3471 0.470581C19.9423 0.470581 18.7993 1.61351 18.7993 3.01838V3.4648C14.7852 4.95398 12.8479 10.0357 15.6741 13.8586C16.4904 14.9628 16.4527 14.9355 16.5851 15.0201C16.9628 16.0101 17.6398 16.8535 18.506 17.4375C17.1519 17.8322 15.8836 18.5068 14.7921 19.4284C14.5233 19.6553 14.4893 20.0571 14.7163 20.3259C14.9433 20.5947 15.3451 20.6286 15.6139 20.4017C17.9633 18.418 21.2139 17.7597 24.217 18.7844C23.2945 22.2518 20.4778 24.8554 16.9035 25.486L16.4217 25.5711L16.8733 23.5389C16.9496 23.1955 16.7331 22.8553 16.3897 22.7789C16.0463 22.7026 15.706 22.9192 15.6297 23.2625C15.4817 23.9286 14.6575 27.6376 14.4667 28.4962H13.7038C13.352 28.4962 13.0668 28.7814 13.0668 29.1332C13.0668 29.4849 13.352 29.7701 13.7038 29.7701H16.097C18.0097 29.7701 19.8079 29.0253 21.1606 27.6727C21.285 27.5484 21.3471 27.3854 21.3471 27.2223C21.3575 27.2223 21.3163 27.4554 21.5337 27.6727C23.8661 30.0052 26.2239 29.7702 28.9905 29.7702C29.3423 29.7702 29.6275 29.485 29.6275 29.1333C29.6275 28.7815 29.3423 28.4963 28.9905 28.4963H28.2275L27.3782 24.6746H29.8714C29.9992 25.1051 29.9334 24.8491 30.848 28.9643C31.1577 30.3576 30.0956 31.6811 28.6687 31.6811H23.3608C24.0679 30.1966 22.9728 28.4963 21.347 28.4963C20.9952 28.4963 20.71 28.7815 20.71 29.1333C20.71 29.485 20.9952 29.7702 21.347 29.7702C21.602 29.7702 21.8418 29.8697 22.0224 30.0502C22.6192 30.6469 22.2011 31.6811 21.3471 31.6811H14.0254C12.7944 31.6811 11.7929 30.6795 11.7929 29.4486C11.7929 29.1148 11.7728 29.2852 12.667 25.2679C12.7565 24.8653 12.8748 24.4676 13.0177 24.0858C13.1409 23.7563 12.9738 23.3893 12.6443 23.266C12.315 23.1427 11.9479 23.3098 11.8246 23.6393C11.6611 24.0761 11.526 24.5308 11.4236 24.9912C10.5598 28.8723 10.3403 29.3075 10.6533 30.4072H10.2005C5.16426 30.4072 2.86822 36.714 6.71284 39.9614H1.60173C1.24998 39.9614 0.964783 40.2466 0.964783 40.5983C0.964783 40.9501 1.24998 41.2353 1.60173 41.2353H41.0925C41.4443 41.2353 41.7295 40.9501 41.7295 40.5983C41.7295 40.2466 41.4443 39.9614 41.0925 39.9614ZM17.5254 13.2096C17.5254 9.71111 17.5076 9.8061 17.5789 9.38332C18.2087 9.33897 18.7648 8.97026 19.051 8.39788C19.0934 8.31285 19.1591 8.24103 19.2383 8.19191C19.4153 8.08339 19.1997 8.11396 23.1831 8.11396C23.7248 8.11396 23.5574 8.65816 24.3048 9.12193C24.5516 9.27329 24.8295 9.36262 25.1152 9.38324C25.1904 9.82847 25.1688 9.7768 25.1688 13.2096C25.1688 15.3168 23.4544 17.0312 21.3471 17.0312C19.2399 17.0312 17.5254 15.3168 17.5254 13.2096ZM15.4801 39.9614C14.9315 39.9614 14.7804 39.1976 15.2935 38.9924C17.9718 37.9212 17.7992 37.9965 17.8787 37.9435C19.2289 37.0447 19.4841 36.7766 20.19 36.7766C20.9885 36.7766 21.6947 37.2856 21.9471 38.0431L22.0167 38.252C22.122 38.5677 22.4522 38.7493 22.7755 38.6685L30.9014 36.637V39.9614H15.4801ZM11.7929 36.637L15.4599 37.5537L14.8204 37.8095C13.952 38.1569 13.5206 39.0951 13.7766 39.9613H11.7929V36.637Z" fill="#253334"/>
</svg>
