<svg width="207" height="169" viewBox="0 0 207 169" fill="none" xmlns="http://www.w3.org/2000/svg">
<g opacity="0.5" filter="url(#filter0_d_3_597)">
<path d="M73.0147 117.996V117.603C73.0147 117.247 73.3025 116.959 73.6576 116.959C74.0126 116.959 74.3004 117.247 74.3004 117.603V117.996C74.3004 118.352 74.0126 118.641 73.6576 118.641C73.3025 118.641 73.0147 118.352 73.0147 117.996ZM66.7977 120.012C66.9168 120.219 67.1329 120.334 67.3552 120.334C67.4642 120.334 67.5747 120.307 67.6758 120.248C67.9834 120.07 68.0889 119.676 67.9115 119.367L67.716 119.028C67.5385 118.719 67.1452 118.613 66.8379 118.791C66.5303 118.969 66.4249 119.363 66.6022 119.672L66.7977 120.012ZM79.639 120.248C79.7402 120.307 79.8507 120.335 79.9598 120.335C80.182 120.335 80.3981 120.219 80.5172 120.012L80.7128 119.672C80.8903 119.364 80.785 118.969 80.4775 118.791C80.17 118.614 79.7769 118.719 79.5993 119.028L79.4037 119.367C79.2262 119.676 79.3315 120.07 79.639 120.248ZM84.5751 124.962C84.6842 124.962 84.7947 124.934 84.896 124.876L85.2349 124.679C85.5423 124.501 85.6476 124.107 85.47 123.799C85.2925 123.49 84.8994 123.385 84.5919 123.563L84.253 123.759C83.9456 123.937 83.8403 124.331 84.0178 124.64C84.1369 124.846 84.3529 124.962 84.5751 124.962ZM86.2462 136.397C85.4114 138.056 83.0786 139.171 80.4414 139.171C78.6335 139.171 76.94 138.648 75.7887 137.752C75.1292 138.206 74.4329 138.498 73.743 138.587C73.7116 138.591 73.6801 138.592 73.6496 138.592C73.6239 138.592 73.5981 138.59 73.5722 138.587C72.8823 138.498 72.186 138.206 71.5265 137.752C70.3751 138.648 68.6818 139.171 66.8737 139.171C64.2365 139.171 61.9037 138.056 61.0689 136.397C60.9771 136.214 60.977 135.998 61.0689 135.816C61.6849 134.591 63.0934 133.663 64.8758 133.26C63.9509 131.943 63.6132 130.386 64.032 129.054C64.0833 128.891 64.197 128.755 64.3481 128.677C65.4044 128.125 66.7441 128.085 68.0482 128.543C68.2418 127.9 68.5464 127.34 68.9592 126.904C69.1004 126.755 69.3043 126.682 69.5077 126.708C69.8449 126.752 70.1836 126.844 70.5189 126.98C71.199 125.538 72.2016 124.463 73.3893 123.916C73.5594 123.838 73.7553 123.838 73.9255 123.916C75.1127 124.462 76.115 125.537 76.7953 126.978C77.1306 126.843 77.4696 126.752 77.8074 126.708C78.011 126.682 78.2147 126.755 78.3559 126.904C78.7688 127.34 79.0733 127.9 79.2669 128.543C80.5711 128.085 81.9106 128.125 82.9669 128.676C83.1179 128.755 83.2316 128.891 83.2829 129.054C83.7019 130.386 83.3642 131.943 82.4393 133.26C84.2217 133.662 85.6303 134.591 86.2462 135.816C86.3381 135.998 86.3381 136.214 86.2462 136.397ZM78.4623 134.568C79.1604 134.394 79.8539 134.036 80.4647 133.522C81.7125 132.472 82.366 130.943 82.124 129.707C81.3688 129.413 80.427 129.459 79.4988 129.832C79.5879 131.036 79.3715 132.398 78.8368 133.738C78.7231 134.023 78.5978 134.3 78.4623 134.568ZM71.6462 127.608C72.3868 128.137 73.0775 128.868 73.6562 129.744C74.2378 128.859 74.9279 128.128 75.6667 127.603C75.1715 126.53 74.4628 125.691 73.6575 125.227C72.8509 125.691 72.1412 126.532 71.6462 127.608ZM66.8502 133.521C67.461 134.036 68.1547 134.394 68.8529 134.568C68.7173 134.3 68.5921 134.023 68.4783 133.738C67.9437 132.398 67.7272 131.036 67.8163 129.832C66.8882 129.459 65.9463 129.413 65.191 129.707C64.949 130.943 65.6025 132.472 66.8502 133.521ZM70.5109 136.897C70.234 136.618 69.9696 136.31 69.7217 135.976C68.4478 135.955 67.1187 135.431 66.0236 134.509C65.9776 134.47 65.9323 134.431 65.8876 134.392C64.3218 134.586 63.0095 135.233 62.392 136.106C63.1427 137.165 64.9174 137.881 66.8736 137.881C68.2624 137.881 69.5907 137.514 70.5109 136.897ZM73.4077 132.036C72.767 130.43 71.6959 129.106 70.5699 128.438C70.5385 128.423 70.5088 128.405 70.4809 128.386C70.2144 128.237 69.9456 128.124 69.6791 128.054C69.4126 128.436 69.2341 128.925 69.1453 129.482C69.1431 129.516 69.1381 129.55 69.1303 129.583C68.9819 130.659 69.1589 131.973 69.6719 133.259C70.1897 134.557 70.9885 135.671 71.8703 136.403C71.8909 136.418 71.9107 136.434 71.9298 136.452C72.4076 136.838 72.9083 137.111 73.4006 137.242C74.1907 136.109 74.2065 134.038 73.4077 132.036ZM77.6431 133.259C78.1559 131.974 78.3329 130.66 78.1849 129.584C78.1768 129.55 78.1717 129.515 78.1694 129.48C78.0806 128.924 77.9022 128.435 77.6358 128.054C77.3733 128.123 77.1081 128.233 76.8448 128.379C76.81 128.404 76.7722 128.426 76.7317 128.444C75.8572 128.965 75.0132 129.883 74.3779 131.039C74.4566 131.208 74.5311 131.381 74.6014 131.557C75.3304 133.384 75.4678 135.252 75.0457 136.704C75.1604 136.626 75.2744 136.541 75.3869 136.45C75.4048 136.434 75.4234 136.419 75.4426 136.405C76.3252 135.672 77.1249 134.558 77.6431 133.259ZM84.923 136.106C84.3055 135.233 82.9931 134.586 81.4273 134.392C81.3826 134.431 81.3372 134.471 81.2912 134.509C80.1961 135.431 78.8671 135.954 77.5933 135.976C77.3455 136.31 77.081 136.618 76.8042 136.897C77.7244 137.514 79.0528 137.881 80.4414 137.881C82.3975 137.881 84.1723 137.165 84.923 136.106ZM79.8896 140.875C79.6219 140.641 79.2158 140.669 78.9826 140.937C78.5772 141.404 76.657 142.062 73.6576 142.062C70.658 142.062 68.7378 141.404 68.3325 140.937C68.0993 140.669 67.6932 140.641 67.4255 140.875C67.1577 141.109 67.1297 141.516 67.363 141.784C68.3673 142.941 71.3815 143.351 73.6576 143.351C75.9337 143.351 78.9479 142.941 79.9522 141.784C80.1853 141.516 80.1573 141.109 79.8896 140.875ZM65.2065 127.233C65.548 127.329 65.9033 127.13 65.9996 126.787C66.9606 123.366 70.1096 120.977 73.6576 120.977C77.2055 120.977 80.3545 123.366 81.3155 126.787C81.3954 127.071 81.6533 127.257 81.934 127.257C81.9917 127.257 82.0504 127.249 82.1086 127.233C82.4504 127.136 82.6493 126.78 82.5531 126.437C81.4366 122.463 77.7786 119.687 73.6576 119.687C69.5364 119.687 65.8784 122.463 64.7621 126.437C64.6658 126.78 64.8647 127.136 65.2065 127.233ZM73.6576 141.184C74.2099 141.184 76.0632 141.125 76.7228 140.365C76.9559 140.097 76.9278 139.689 76.66 139.455C76.3937 139.223 75.9903 139.25 75.7567 139.514C75.6101 139.648 74.8491 139.895 73.6576 139.895C72.4657 139.895 71.7047 139.648 71.5582 139.514C71.3244 139.25 70.9212 139.223 70.6549 139.456C70.3871 139.689 70.3591 140.097 70.5923 140.365C71.2521 141.125 73.1053 141.184 73.6576 141.184ZM62.0802 124.679L62.4188 124.875C62.5201 124.934 62.6307 124.962 62.7399 124.962C62.962 124.962 63.178 124.847 63.2971 124.64C63.4747 124.331 63.3695 123.937 63.0621 123.759L62.7234 123.563C62.4162 123.385 62.0228 123.49 61.8452 123.798C61.6676 124.107 61.7728 124.501 62.0802 124.679Z" fill="white"/>
</g>
<defs>
<filter id="filter0_d_3_597" x="-59" y="0.95874" width="265.315" height="266.392" filterUnits="userSpaceOnUse" color-interpolation-filters="sRGB">
<feFlood flood-opacity="0" result="BackgroundImageFix"/>
<feColorMatrix in="SourceAlpha" type="matrix" values="0 0 0 0 0 0 0 0 0 0 0 0 0 0 0 0 0 0 127 0" result="hardAlpha"/>
<feOffset dy="4"/>
<feGaussianBlur stdDeviation="60"/>
<feColorMatrix type="matrix" values="0 0 0 0 1 0 0 0 0 1 0 0 0 0 1 0 0 0 1 0"/>
<feBlend mode="normal" in2="BackgroundImageFix" result="effect1_dropShadow_3_597"/>
<feBlend mode="normal" in="SourceGraphic" in2="effect1_dropShadow_3_597" result="shape"/>
</filter>
</defs>
</svg>
