<svg width="37" height="30" viewBox="0 0 37 30" fill="none" xmlns="http://www.w3.org/2000/svg">
<path d="M0.729167 3.33333H22.6042C23.0067 3.33333 23.3333 2.58833 23.3333 1.66667C23.3333 0.745 23.0067 0 22.6042 0H0.729167C0.326667 0 0 0.745 0 1.66667C0 2.58833 0.325938 3.33333 0.729167 3.33333Z" fill="white"/>
<path d="M12.4479 30H35.8854C36.3167 30 36.6667 29.255 36.6667 28.3334C36.6667 27.4117 36.3167 26.6667 35.8854 26.6667H12.4479C12.0167 26.6667 11.6667 27.4117 11.6667 28.3334C11.6667 29.255 12.0159 30 12.4479 30Z" fill="white"/>
<path d="M1.14583 16.6666H35.5208C36.1533 16.6666 36.6667 15.9216 36.6667 15C36.6667 14.0783 36.1533 13.3333 35.5208 13.3333H1.14583C0.513333 13.3333 0 14.0783 0 15C0 15.9216 0.512187 16.6666 1.14583 16.6666Z" fill="white"/>
</svg>
