<svg width="19" height="17" viewBox="0 0 19 17" fill="none" xmlns="http://www.w3.org/2000/svg">
<g opacity="0.75" clip-path="url(#clip0_2056_32)">
<path d="M1.08472 16.741C1.36308 16.741 1.60426 16.6387 1.80768 16.4329C2.52782 15.7071 8.28672 9.8986 9.0063 9.17225C9.20972 8.96708 9.31171 8.72439 9.31171 8.44306C9.31171 8.16229 9.20972 7.91904 9.0063 7.71386C8.28672 6.98808 2.52782 1.17954 1.80768 0.453188C1.60426 0.248013 1.36308 0.145142 1.08472 0.145142C0.806352 0.145142 0.565177 0.248013 0.361756 0.453188C0.158335 0.658362 0.0563431 0.901616 0.0563431 1.18238C0.0563431 2.63452 0.0563431 14.2516 0.0563431 15.7037C0.0563431 15.9851 0.158335 16.2278 0.361756 16.4329C0.565177 16.6387 0.806352 16.741 1.08472 16.741Z" fill="white"/>
</g>
<g opacity="0.75" clip-path="url(#clip1_2056_32)">
<path d="M10.1514 16.741C10.4297 16.741 10.6709 16.6387 10.8743 16.4329C11.5945 15.7071 17.3534 9.8986 18.073 9.17225C18.2764 8.96708 18.3784 8.72439 18.3784 8.44306C18.3784 8.16229 18.2764 7.91904 18.073 7.71386C17.3534 6.98808 11.5945 1.17954 10.8743 0.453188C10.6709 0.248013 10.4297 0.145142 10.1514 0.145142C9.87302 0.145142 9.63184 0.248013 9.42842 0.453188C9.225 0.658362 9.12301 0.901616 9.12301 1.18238C9.12301 2.63452 9.12301 14.2516 9.12301 15.7037C9.12301 15.9851 9.225 16.2278 9.42842 16.4329C9.63184 16.6387 9.87302 16.741 10.1514 16.741Z" fill="white"/>
</g>
<defs>
<clipPath id="clip0_2056_32">
<rect width="9.48077" height="17" fill="white"/>
</clipPath>
<clipPath id="clip1_2056_32">
<rect width="9.48077" height="17" fill="white" transform="translate(9.06665)"/>
</clipPath>
</defs>
</svg>
