<svg width="23" height="29" viewBox="0 0 23 29" fill="none" xmlns="http://www.w3.org/2000/svg">
<g opacity="0.5">
<path d="M11.8447 14.0789C15.4677 14.0789 18.4048 11.1418 18.4048 7.51882C18.4048 3.89579 15.4677 0.95874 11.8447 0.95874C8.22165 0.95874 5.28461 3.89579 5.28461 7.51882C5.28461 11.1418 8.22165 14.0789 11.8447 14.0789Z" stroke="white" stroke-width="1.5" stroke-linecap="round" stroke-linejoin="round"/>
<path fill-rule="evenodd" clip-rule="evenodd" d="M1.43917 23.2028C1.43743 22.7416 1.54057 22.2861 1.74081 21.8707C2.36917 20.6139 4.14116 19.9479 5.61153 19.6463C6.67196 19.42 7.74704 19.2688 8.82875 19.1938C10.8315 19.0179 12.8458 19.0179 14.8485 19.1938C15.9301 19.2696 17.0051 19.4208 18.0657 19.6463C19.5361 19.9479 21.3081 20.5511 21.9364 21.8707C22.3391 22.7175 22.3391 23.7007 21.9364 24.5475C21.3081 25.8671 19.5361 26.4703 18.0657 26.7593C17.0065 26.995 15.9311 27.1504 14.8485 27.2243C13.2184 27.3625 11.5808 27.3877 9.94724 27.2997C9.57022 27.2997 9.20577 27.2997 8.82875 27.2243C7.75023 27.1513 6.67888 26.9959 5.6241 26.7593C4.14116 26.4703 2.38174 25.8671 1.74081 24.5475C1.54159 24.1272 1.43855 23.6679 1.43917 23.2028Z" stroke="white" stroke-width="1.5" stroke-linecap="round" stroke-linejoin="round"/>
</g>
</svg>
