<svg width="21" height="19" viewBox="0 0 21 19" fill="none" xmlns="http://www.w3.org/2000/svg">
<path opacity="0.75" d="M17.8047 11.6666C17.5913 11.4532 17.3018 11.3333 17 11.3333C16.6982 11.3333 16.4087 11.4532 16.1953 11.6666C15.9819 11.88 15.862 12.1695 15.862 12.4713C15.862 12.7731 15.9819 13.0626 16.1953 13.276L16.524 13.6046H14.7333C13.531 13.6046 12.3779 13.127 11.5278 12.2769C10.6776 11.4267 10.2 10.2736 10.2 9.0713C10.2 7.86899 10.6776 6.71592 11.5278 5.86575C12.3779 5.01559 13.531 4.53797 14.7333 4.53797H16.5353L16.1953 4.86664C16.0891 4.972 16.0048 5.09734 15.9473 5.23545C15.8897 5.37356 15.8601 5.52169 15.8601 5.6713C15.8601 5.82092 15.8897 5.96905 15.9473 6.10716C16.0048 6.24526 16.0891 6.37061 16.1953 6.47597C16.3012 6.58101 16.4268 6.66411 16.5649 6.72051C16.703 6.77691 16.8508 6.8055 17 6.80464C17.1492 6.8055 17.297 6.77691 17.4351 6.72051C17.5732 6.66411 17.6988 6.58101 17.8047 6.47597L20.0713 4.2093C20.1764 4.10341 20.2595 3.97781 20.3159 3.83973C20.3723 3.70165 20.4009 3.55379 20.4 3.40464C20.4009 3.25548 20.3723 3.10763 20.3159 2.96954C20.2595 2.83146 20.1764 2.70587 20.0713 2.59997L17.8047 0.333304C17.699 0.227634 17.5735 0.143812 17.4355 0.0866232C17.2974 0.0294348 17.1494 0 17 0C16.6982 0 16.4087 0.119893 16.1953 0.333304C15.9819 0.546715 15.862 0.836162 15.862 1.13797C15.862 1.43978 15.9819 1.72923 16.1953 1.94264L16.524 2.2713H14.7333C13.6105 2.27213 12.5054 2.55097 11.5166 3.08295C10.5278 3.61492 9.68609 4.38347 9.06667 5.31997C8.44725 4.38347 7.60556 3.61492 6.61676 3.08295C5.62796 2.55097 4.52282 2.27213 3.4 2.2713H1.13333C0.832755 2.2713 0.544487 2.39071 0.331946 2.60325C0.119404 2.81579 0 3.10406 0 3.40464C0 3.70522 0.119404 3.99348 0.331946 4.20602C0.544487 4.41857 0.832755 4.53797 1.13333 4.53797H3.4C4.60231 4.53797 5.75539 5.01559 6.60555 5.86575C7.45572 6.71592 7.93333 7.86899 7.93333 9.0713C7.93333 10.2736 7.45572 11.4267 6.60555 12.2769C5.75539 13.127 4.60231 13.6046 3.4 13.6046H1.13333C0.832755 13.6046 0.544487 13.724 0.331946 13.9366C0.119404 14.1491 0 14.4374 0 14.738C0 15.0385 0.119404 15.3268 0.331946 15.5394C0.544487 15.7519 0.832755 15.8713 1.13333 15.8713H3.4C4.52282 15.8705 5.62796 15.5916 6.61676 15.0597C7.60556 14.5277 8.44725 13.7591 9.06667 12.8226C9.68609 13.7591 10.5278 14.5277 11.5166 15.0597C12.5054 15.5916 13.6105 15.8705 14.7333 15.8713H16.5353L16.1953 16.2C16.0891 16.3053 16.0048 16.4307 15.9473 16.5688C15.8897 16.7069 15.8601 16.855 15.8601 17.0046C15.8601 17.1543 15.8897 17.3024 15.9473 17.4405C16.0048 17.5786 16.0891 17.7039 16.1953 17.8093C16.3012 17.9143 16.4268 17.9974 16.5649 18.0538C16.703 18.1102 16.8508 18.1388 17 18.138C17.1492 18.1388 17.297 18.1102 17.4351 18.0538C17.5732 17.9974 17.6988 17.9143 17.8047 17.8093L20.0713 15.5426C20.1764 15.4367 20.2595 15.3111 20.3159 15.1731C20.3723 15.035 20.4009 14.8871 20.4 14.738C20.4009 14.5888 20.3723 14.441 20.3159 14.3029C20.2595 14.1648 20.1764 14.0392 20.0713 13.9333L17.8047 11.6666Z" fill="white"/>
</svg>
