<svg width="42" height="39" viewBox="0 0 42 39" fill="none" xmlns="http://www.w3.org/2000/svg">
<path d="M36.528 21.3958C35.3806 20.8163 34.1057 20.5149 32.854 20.5149C30.1303 20.5149 27.8354 21.9289 26.8618 24.2006C26.0853 26.0087 26.1896 28.7555 27.1052 30.4361C27.6963 31.5256 29.0292 32.6846 31.0227 32.6846C31.4168 32.6846 31.8224 32.6383 32.2281 32.5571C33.3291 32.3253 34.8822 30.6795 35.2531 29.3698C35.5313 28.3847 34.465 26.7041 33.3639 25.9159C33.2828 25.858 33.1901 25.858 33.1205 25.858C32.9814 25.858 32.286 25.8812 31.9499 26.31C31.834 26.4491 31.7065 26.7041 31.7877 27.075L31.8108 27.1677L31.8804 27.2256C32.5874 27.9095 32.9583 28.7324 32.8076 29.2771C32.7033 29.648 32.3788 29.903 31.834 30.0421C31.3125 29.9493 30.5707 29.5089 30.3157 29.196C29.8405 28.6049 29.4117 27.1561 29.6087 26.368C29.9564 24.9771 31.3704 24.0036 33.0626 24.0036C34.2332 24.0036 35.2763 24.502 35.9253 25.3712C36.9916 26.8084 37.7566 29.5437 37.1307 30.8997C36.3542 32.6035 34.1868 34.3768 32.089 35.0258C31.5559 35.1881 31.0111 35.2692 30.4896 35.2692C28.4497 35.2692 26.4562 34.0059 24.8915 31.7226C23.0023 28.9758 22.898 26.0898 24.5786 23.3545C25.2856 22.2187 26.2591 21.1988 27.2095 20.2136C27.6616 19.75 28.1252 19.2748 28.554 18.788C31.4863 15.4616 32.1933 11.6253 30.675 7.37167C29.3769 3.72077 26.5141 1.48386 22.3996 0.881174C22.0171 0.823224 21.6347 0.800049 21.2522 0.800049C17.6245 0.800049 14.159 3.14126 12.8261 6.47923C11.4701 9.87515 12.5248 13.584 15.4455 15.7166C16.5582 16.5279 17.9953 16.9683 19.4789 16.9683C21.4145 16.9683 23.1877 16.2034 24.254 14.9169C26.3171 12.4134 26.3055 9.57381 24.2077 7.6962C23.5007 7.05874 22.2721 6.82694 21.3565 6.82694C20.8929 6.82694 20.4872 6.88489 20.1743 6.97761C19.4557 7.20941 17.891 8.66978 17.8794 9.60858C17.8794 9.96788 18.0765 10.246 18.4474 10.3735L18.5053 10.3967H18.5633C18.7139 10.3967 18.8067 10.304 18.9805 10.1417C19.3398 9.79402 20.0932 9.08702 21.1247 9.08702C21.5072 9.08702 21.9128 9.19133 22.3069 9.38836C22.643 9.56222 22.7126 9.97946 22.7241 10.2229C22.7589 11.0574 22.2258 12.2627 21.287 12.8306C20.7654 13.1436 19.9657 13.3406 19.2007 13.3406C18.7603 13.3406 18.3546 13.2827 18.0417 13.1552C16.9291 12.7379 16.1641 11.8455 15.8628 10.6285C15.4919 9.1102 15.9555 7.40644 17.0565 6.17789C18.1576 4.96092 19.6875 4.28869 21.3681 4.28869C23.4195 4.28869 25.3899 5.30862 26.63 7.02397C28.2411 9.23769 28.4845 12.0889 27.2791 14.6387C26.0621 17.2349 23.6398 18.8807 20.8118 19.0546C20.6147 19.0662 20.4061 19.0662 20.1975 19.0662C18.6908 19.0662 17.1261 18.7532 15.6194 18.4519C14.6226 18.2548 13.5911 18.0462 12.5827 17.9303C12.1655 17.884 11.7367 17.8608 11.3194 17.8608C5.96475 17.8608 1.35186 21.7783 0.575319 26.9591C-0.178042 32.0124 3.20629 36.7528 8.28278 37.7611C8.80434 37.8654 9.34908 37.9234 9.87064 37.9234C13.3013 37.9234 16.28 35.7908 17.4506 32.4876C18.6676 29.0685 17.2536 25.5103 14.2285 24.3861C13.5563 24.1427 12.7566 24.0152 11.8989 24.0152C10.7399 24.0152 9.59247 24.247 8.65367 24.6526C7.47147 25.1742 6.42836 27.1793 6.56744 28.686C6.74129 30.7027 7.71487 31.2011 8.64208 31.6763L8.74639 31.7342C9.07092 31.8965 9.6736 32.0935 10.3111 32.0935C11.2962 32.0935 11.9453 31.6415 12.1307 30.8186L12.1423 30.7838C12.2814 29.4625 11.1803 28.9062 10.4501 28.5237C10.2183 28.4078 9.82428 28.2108 9.8011 28.1065C9.8011 27.9558 10.114 27.8515 10.5545 27.8515C11.586 27.8515 12.9768 28.3731 13.3477 29.1148C13.8113 30.0652 13.9272 31.6531 13.2202 32.7194C12.4205 33.9132 11.3542 34.5159 10.0213 34.5159C9.02456 34.5159 7.90031 34.1566 6.77606 33.4959C4.1335 31.9197 3.21788 28.3035 4.7246 25.4292C6.23132 22.5548 8.76957 21.1292 12.0148 21.3262C15.5614 21.5349 18.1808 23.4936 19.6064 26.9938C19.9309 27.8052 20.1743 28.6744 20.4061 29.5089C20.7075 30.6216 21.032 31.769 21.5535 32.8121C23.4659 36.6021 26.8387 38.6883 31.0575 38.6883C31.2081 38.6883 31.3704 38.6883 31.5211 38.6767C35.9022 38.5261 39.0663 36.3007 40.6541 32.2442C42.2536 28.1413 40.4455 23.3777 36.528 21.3958Z" fill="#253334"/>
</svg>
