<svg width="212" height="174" viewBox="0 0 212 174" fill="none" xmlns="http://www.w3.org/2000/svg">
<g filter="url(#filter0_d_3_678)">
<path d="M72.5604 117.493V116.928C72.5604 116.416 72.981 116 73.5 116C74.019 116 74.4396 116.416 74.4396 116.928V117.493C74.4396 118.006 74.019 118.422 73.5 118.422C72.981 118.422 72.5604 118.006 72.5604 117.493ZM63.4738 120.396C63.6479 120.694 63.9637 120.86 64.2886 120.86C64.4479 120.86 64.6094 120.82 64.7572 120.736C65.2068 120.48 65.361 119.912 65.1016 119.468L64.8159 118.979C64.5565 118.535 63.9817 118.382 63.5325 118.638C63.083 118.895 62.9289 119.462 63.1881 119.906L63.4738 120.396ZM82.2424 120.736C82.3903 120.82 82.5518 120.861 82.7113 120.861C83.0359 120.861 83.3519 120.694 83.5259 120.396L83.8118 119.907C84.0713 119.463 83.9173 118.895 83.4678 118.639C83.0185 118.383 82.4439 118.535 82.1843 118.979L81.8984 119.468C81.639 119.912 81.7929 120.48 82.2424 120.736ZM89.4569 127.523C89.6163 127.523 89.7779 127.483 89.9259 127.399L90.4212 127.116C90.8705 126.86 91.0244 126.292 90.7649 125.848C90.5055 125.404 89.9308 125.252 89.4814 125.508L88.9861 125.791C88.5368 126.047 88.3829 126.615 88.6423 127.059C88.8164 127.357 89.1321 127.523 89.4569 127.523ZM91.8993 143.987C90.6792 146.376 87.2697 147.981 83.4151 147.981C80.7728 147.981 78.2975 147.228 76.6148 145.939C75.6509 146.592 74.6332 147.012 73.6249 147.14C73.5789 147.146 73.5329 147.148 73.4884 147.148C73.4508 147.148 73.4131 147.145 73.3753 147.14C72.3669 147.012 71.3492 146.592 70.3852 145.939C68.7025 147.228 66.2275 147.981 63.5849 147.981C59.7304 147.981 56.3209 146.376 55.1007 143.987C54.9665 143.724 54.9664 143.414 55.1007 143.151C56.001 141.387 58.0596 140.05 60.6647 139.471C59.313 137.574 58.8194 135.333 59.4316 133.415C59.5065 133.181 59.6727 132.985 59.8935 132.871C61.4374 132.077 63.3954 132.019 65.3015 132.679C65.5844 131.753 66.0297 130.947 66.633 130.319C66.8394 130.104 67.1375 130 67.4347 130.038C67.9276 130.1 68.4225 130.233 68.9126 130.428C69.9067 128.352 71.372 126.804 73.1079 126.017C73.3566 125.904 73.6428 125.904 73.8916 126.017C75.6269 126.804 77.0917 128.351 78.0861 130.425C78.5762 130.232 79.0716 130.101 79.5654 130.038C79.8629 130 80.1606 130.104 80.367 130.319C80.9705 130.947 81.4155 131.753 81.6986 132.679C83.6047 132.019 85.5625 132.077 87.1063 132.871C87.3271 132.985 87.4933 133.181 87.5683 133.415C88.1807 135.333 87.6871 137.574 86.3352 139.471C88.9404 140.05 90.9991 141.387 91.8993 143.15C92.0336 143.414 92.0336 143.724 91.8993 143.987ZM80.5225 141.354C81.5428 141.103 82.5564 140.587 83.4493 139.847C85.2729 138.336 86.2281 136.135 85.8744 134.356C84.7707 133.932 83.394 133.998 82.0375 134.536C82.1677 136.269 81.8514 138.23 81.0699 140.159C80.9038 140.569 80.7205 140.968 80.5225 141.354ZM70.5602 131.333C71.6426 132.094 72.6523 133.148 73.498 134.408C74.3481 133.134 75.3567 132.082 76.4365 131.325C75.7128 129.78 74.6769 128.572 73.4999 127.904C72.321 128.573 71.2838 129.784 70.5602 131.333ZM63.5505 139.847C64.4432 140.587 65.4571 141.103 66.4776 141.354C66.2795 140.968 66.0965 140.57 65.9302 140.159C65.1487 138.23 64.8324 136.269 64.9626 134.536C63.606 133.998 62.2294 133.932 61.1255 134.355C60.7718 136.134 61.7269 138.335 63.5505 139.847ZM68.9009 144.708C68.4962 144.306 68.1097 143.862 67.7475 143.382C65.8855 143.351 63.943 142.597 62.3425 141.269C62.2751 141.214 62.2089 141.157 62.1436 141.1C59.855 141.38 57.937 142.312 57.0345 143.569C58.1317 145.093 60.7256 146.125 63.5847 146.125C65.6146 146.125 67.556 145.596 68.9009 144.708ZM73.1348 137.709C72.1985 135.397 70.6329 133.49 68.9872 132.527C68.9413 132.506 68.8978 132.481 68.857 132.453C68.4676 132.238 68.0748 132.076 67.6851 131.975C67.2956 132.525 67.0348 133.229 66.9051 134.031C66.9017 134.08 66.8944 134.129 66.883 134.177C66.6662 135.726 66.9249 137.618 67.6747 139.469C68.4315 141.338 69.599 142.942 70.8878 143.996C70.9179 144.018 70.9469 144.041 70.9748 144.066C71.6731 144.622 72.4049 145.016 73.1244 145.204C74.2793 143.572 74.3023 140.591 73.1348 137.709ZM79.3251 139.469C80.0747 137.619 80.3334 135.727 80.1171 134.179C80.1053 134.129 80.0978 134.079 80.0945 134.029C79.9647 133.228 79.7039 132.524 79.3146 131.974C78.9308 132.074 78.5433 132.232 78.1585 132.443C78.1076 132.479 78.0523 132.51 77.9931 132.536C76.7149 133.287 75.4814 134.609 74.5528 136.273C74.6678 136.517 74.7768 136.766 74.8795 137.019C75.945 139.65 76.1458 142.338 75.5289 144.43C75.6966 144.317 75.8631 144.195 76.0277 144.064C76.0538 144.041 76.0809 144.019 76.109 143.999C77.399 142.944 78.5678 141.339 79.3251 139.469ZM89.9653 143.569C89.0629 142.312 87.1447 141.38 84.8561 141.1C84.7908 141.157 84.7244 141.214 84.6572 141.269C83.0566 142.596 81.1142 143.35 79.2525 143.382C78.8902 143.862 78.5037 144.306 78.0991 144.708C79.444 145.596 81.3856 146.125 83.4151 146.125C86.2741 146.125 88.8682 145.093 89.9653 143.569ZM82.6086 150.435C82.2173 150.098 81.6238 150.138 81.283 150.525C80.6905 151.197 77.884 152.143 73.5 152.143C69.1159 152.143 66.3095 151.197 65.717 150.525C65.3761 150.138 64.7826 150.098 64.3913 150.435C64 150.771 63.9591 151.358 64.3 151.744C65.7679 153.409 70.1734 154 73.5001 154C76.8267 154 81.2322 153.409 82.7002 151.744C83.0408 151.358 82.9999 150.771 82.6086 150.435ZM61.1481 130.792C61.6473 130.931 62.1665 130.644 62.3073 130.151C63.7119 125.225 68.3145 121.785 73.5 121.785C78.6856 121.785 83.2882 125.225 84.6928 130.151C84.8095 130.56 85.1865 130.827 85.5967 130.827C85.681 130.827 85.7668 130.816 85.8519 130.792C86.3515 130.653 86.6422 130.141 86.5015 129.647C84.8697 123.925 79.5233 119.929 73.5 119.929C67.4766 119.929 62.1302 123.925 60.4985 129.647C60.3578 130.141 60.6486 130.653 61.1481 130.792ZM73.5 150.88C74.3072 150.88 77.016 150.795 77.9801 149.701C78.3208 149.314 78.2798 148.728 77.8884 148.391C77.4991 148.056 76.9095 148.095 76.5681 148.476C76.3538 148.668 75.2416 149.023 73.5 149.023C71.758 149.023 70.6457 148.668 70.4316 148.476C70.09 148.095 69.5007 148.056 69.1113 148.391C68.72 148.728 68.679 149.314 69.0199 149.701C69.9842 150.795 72.6929 150.88 73.5 150.88ZM56.5787 127.116L57.0737 127.399C57.2217 127.483 57.3833 127.523 57.543 127.523C57.8675 127.523 58.1833 127.357 58.3574 127.059C58.617 126.615 58.4633 126.048 58.0139 125.791L57.519 125.508C57.0699 125.252 56.4949 125.404 56.2354 125.848C55.9757 126.292 56.1295 126.859 56.5787 127.116Z" fill="white"/>
</g>
<defs>
<filter id="filter0_d_3_678" x="-65" y="0" width="277" height="278" filterUnits="userSpaceOnUse" color-interpolation-filters="sRGB">
<feFlood flood-opacity="0" result="BackgroundImageFix"/>
<feColorMatrix in="SourceAlpha" type="matrix" values="0 0 0 0 0 0 0 0 0 0 0 0 0 0 0 0 0 0 127 0" result="hardAlpha"/>
<feOffset dy="4"/>
<feGaussianBlur stdDeviation="60"/>
<feColorMatrix type="matrix" values="0 0 0 0 1 0 0 0 0 1 0 0 0 0 1 0 0 0 1 0"/>
<feBlend mode="normal" in2="BackgroundImageFix" result="effect1_dropShadow_3_678"/>
<feBlend mode="normal" in="SourceGraphic" in2="effect1_dropShadow_3_678" result="shape"/>
</filter>
</defs>
</svg>
