<svg width="29" height="37" viewBox="0 0 29 37" fill="none" xmlns="http://www.w3.org/2000/svg">
<path d="M14.727 18.4024C19.3537 18.4024 23.1043 14.6518 23.1043 10.0251C23.1043 5.39847 19.3537 1.64783 14.727 1.64783C10.1004 1.64783 6.34973 5.39847 6.34973 10.0251C6.34973 14.6518 10.1004 18.4024 14.727 18.4024Z" stroke="white" stroke-width="1.5" stroke-linecap="round" stroke-linejoin="round"/>
<path fill-rule="evenodd" clip-rule="evenodd" d="M1.43911 30.0537C1.43689 29.4648 1.5686 28.8831 1.82431 28.3526C2.62674 26.7477 4.88958 25.8972 6.76726 25.512C8.12144 25.223 9.49433 25.0299 10.8757 24.9342C13.4332 24.7096 16.0054 24.7096 18.5629 24.9342C19.9442 25.031 21.317 25.2241 22.6714 25.512C24.5491 25.8972 26.8119 26.6675 27.6143 28.3526C28.1286 29.434 28.1286 30.6895 27.6143 31.7709C26.8119 33.456 24.5491 34.2263 22.6714 34.5955C21.3188 34.8964 19.9454 35.0949 18.5629 35.1893C16.4814 35.3657 14.39 35.3979 12.304 35.2856C11.8226 35.2856 11.3571 35.2855 10.8757 35.1893C9.49841 35.0961 8.13028 34.8976 6.78331 34.5955C4.88958 34.2263 2.64278 33.456 1.82431 31.7709C1.56991 31.2343 1.43833 30.6476 1.43911 30.0537Z" stroke="white" stroke-width="1.5" stroke-linecap="round" stroke-linejoin="round"/>
</svg>
