<svg width="37" height="33" viewBox="0 0 37 33" fill="none" xmlns="http://www.w3.org/2000/svg">
<path d="M35.5555 10.7676C34.5125 8.62826 32.7209 7.43045 30.9876 6.27071C29.6959 5.40535 28.4778 4.5882 27.615 3.41831L27.4551 3.20261C26.9475 2.51996 26.3689 1.74595 26.2801 1.0963C26.2725 1.043 26.2421 0.999863 26.2268 0.946571C26.204 0.857751 26.1786 0.774006 26.138 0.692799C26.1076 0.626818 26.0644 0.56845 26.0187 0.507545C25.9654 0.439026 25.9147 0.373045 25.8487 0.317215C25.7853 0.261386 25.7168 0.22332 25.6457 0.180178C25.5797 0.142113 25.5188 0.106584 25.4452 0.0812072C25.3564 0.0482168 25.265 0.0355281 25.1686 0.0253772C25.1204 0.0228395 25.0798 0 25.029 0C24.9986 0 24.9732 0.0152264 24.9453 0.0177641C24.9148 0.0203019 24.8869 0.00761316 24.8565 0.0126886C24.8006 0.0203018 24.7575 0.0507545 24.7042 0.0659809C24.6179 0.0888204 24.5367 0.11166 24.4606 0.152263C24.3895 0.187792 24.3286 0.233471 24.2677 0.284225C24.2017 0.334979 24.1383 0.385734 24.085 0.449177C24.0317 0.510082 23.9936 0.576063 23.953 0.644582C23.9124 0.715638 23.8744 0.784157 23.8464 0.862826C23.8185 0.941496 23.8084 1.0227 23.7982 1.10899C23.7855 1.15974 23.7602 1.21049 23.7602 1.26886V23.88C22.6969 23.2354 21.3874 22.8395 19.9536 22.8395C16.4541 22.8395 13.6093 25.1159 13.6093 27.915C13.6093 30.7141 16.4541 32.9904 19.9536 32.9904C23.4531 32.9904 26.2979 30.7141 26.2979 27.915V13.1251C28.2037 13.8534 31.3226 15.7085 32.1803 20.0404C32.0205 20.2764 31.8682 20.5327 31.6906 20.7332C31.2261 21.2585 31.2794 22.0604 31.8047 22.5223C32.0458 22.7355 32.3453 22.8395 32.6422 22.8395C32.9949 22.8395 33.3426 22.6923 33.5938 22.4081C33.9314 22.0249 34.2333 21.5707 34.5227 21.1037C34.5556 21.0631 34.581 21.025 34.6089 20.9819C35.6342 19.2664 36.3143 17.0966 36.4437 14.9523C36.5275 13.5743 36.2204 12.1278 35.5555 10.7676ZM19.9536 30.4527C17.8904 30.4527 16.147 29.2904 16.147 27.915C16.147 26.5395 17.8904 25.3772 19.9536 25.3772C22.0167 25.3772 23.7602 26.5395 23.7602 27.915C23.7602 29.2904 22.0167 30.4527 19.9536 30.4527ZM33.9136 14.7924C33.8781 15.3862 33.7867 15.98 33.6573 16.5612C31.8733 12.9805 28.6377 11.1152 26.2979 10.425V5.76317C27.2927 6.82394 28.4473 7.61825 29.5792 8.37449C31.0993 9.39211 32.5356 10.3539 33.2792 11.8791C33.7461 12.8307 33.9694 13.8687 33.9136 14.7924Z" fill="white"/>
<path d="M17.4158 0H2.18941C1.489 0 0.920547 0.56845 0.920547 1.26886C0.920547 1.96927 1.489 2.53772 2.18941 2.53772H17.4158C18.1162 2.53772 18.6846 1.96927 18.6846 1.26886C18.6846 0.56845 18.1162 0 17.4158 0Z" fill="white"/>
<path d="M17.4157 7.61328H2.1894C1.48899 7.61328 0.920538 8.18173 0.920538 8.88214C0.920538 9.58255 1.48899 10.151 2.1894 10.151H17.4157C18.1162 10.151 18.6846 9.58255 18.6846 8.88214C18.6846 8.18173 18.1162 7.61328 17.4157 7.61328Z" fill="white"/>
<path d="M9.80257 15.2267H2.1894C1.48899 15.2267 0.920538 15.7951 0.920538 16.4955C0.920538 17.196 1.48899 17.7644 2.1894 17.7644H9.80257C10.503 17.7644 11.0714 17.196 11.0714 16.4955C11.0714 15.7951 10.503 15.2267 9.80257 15.2267Z" fill="white"/>
<path d="M9.80257 22.8396H2.1894C1.48899 22.8396 0.920538 23.408 0.920538 24.1085C0.920538 24.8089 1.48899 25.3773 2.1894 25.3773H9.80257C10.503 25.3773 11.0714 24.8089 11.0714 24.1085C11.0714 23.408 10.503 22.8396 9.80257 22.8396Z" fill="white"/>
</svg>
