<svg width="16" height="15" viewBox="0 0 16 15" fill="none" xmlns="http://www.w3.org/2000/svg">
<path d="M8.10144 0.318848C4.15349 0.318848 0.942017 3.53063 0.942017 7.47827C0.942017 11.4259 4.15349 14.6377 8.10144 14.6377C12.0494 14.6377 15.2609 11.4259 15.2609 7.47827C15.2609 3.53063 12.0494 0.318848 8.10144 0.318848ZM10.9476 7.7291L6.7713 10.4139C6.72235 10.4456 6.66583 10.4614 6.6099 10.4614C6.56096 10.4614 6.51143 10.4491 6.46716 10.425C6.37101 10.3725 6.31158 10.2723 6.31158 10.1631V4.79349C6.31158 4.68425 6.37101 4.58402 6.46716 4.53158C6.56155 4.47973 6.67982 4.48292 6.7713 4.54265L10.9476 7.22744C11.0327 7.2822 11.0845 7.37689 11.0845 7.47827C11.0845 7.57965 11.0327 7.67431 10.9476 7.7291Z" fill="white"/>
</svg>
