<svg width="28" height="26" viewBox="0 0 28 26" fill="none" xmlns="http://www.w3.org/2000/svg">
<g opacity="0.5">
<path d="M27.2961 8.48588C26.4741 6.79988 25.0621 5.85588 23.6961 4.94188C22.6781 4.25988 21.7181 3.61588 21.0381 2.69388L20.9121 2.52388C20.5121 1.98588 20.0561 1.37588 19.9861 0.863878C19.9801 0.821878 19.9561 0.787878 19.9441 0.745878C19.9261 0.675878 19.9061 0.609878 19.8741 0.545878C19.8501 0.493878 19.8161 0.447878 19.7801 0.399878C19.7381 0.345878 19.6981 0.293878 19.6461 0.249878C19.5961 0.205878 19.5421 0.175878 19.4861 0.141878C19.4341 0.111878 19.3861 0.0838779 19.3281 0.0638779C19.2581 0.0378779 19.1861 0.0278779 19.1101 0.0198779C19.0721 0.0178779 19.0401 -0.00012207 19.0001 -0.00012207C18.9761 -0.00012207 18.9561 0.011878 18.9341 0.013878C18.9101 0.015878 18.8881 0.00587792 18.8641 0.00987792C18.8201 0.0158779 18.7861 0.039878 18.7441 0.051878C18.6761 0.069878 18.6121 0.0878779 18.5521 0.119878C18.4961 0.147878 18.4481 0.183878 18.4001 0.223878C18.3481 0.263878 18.2981 0.303878 18.2561 0.353878C18.2141 0.401878 18.1841 0.453878 18.1521 0.507878C18.1201 0.563878 18.0901 0.617878 18.0681 0.679878C18.0461 0.741878 18.0381 0.805878 18.0301 0.873878C18.0201 0.913878 18.0001 0.953878 18.0001 0.999878V18.8199C17.1621 18.3119 16.1301 17.9999 15.0001 17.9999C12.2421 17.9999 10.0001 19.7939 10.0001 21.9999C10.0001 24.2059 12.2421 25.9999 15.0001 25.9999C17.7581 25.9999 20.0001 24.2059 20.0001 21.9999V10.3439C21.5021 10.9179 23.9601 12.3799 24.6361 15.7939C24.5101 15.9799 24.3901 16.1819 24.2501 16.3399C23.8841 16.7539 23.9261 17.3859 24.3401 17.7499C24.5301 17.9179 24.7661 17.9999 25.0001 17.9999C25.2781 17.9999 25.5521 17.8839 25.7501 17.6599C26.0161 17.3579 26.2541 16.9999 26.4821 16.6319C26.5081 16.5999 26.5281 16.5699 26.5501 16.5359C27.3581 15.1839 27.8941 13.4739 27.9961 11.7839C28.0621 10.6979 27.8201 9.55788 27.2961 8.48588ZM15.0001 23.9999C13.3741 23.9999 12.0001 23.0839 12.0001 21.9999C12.0001 20.9159 13.3741 19.9999 15.0001 19.9999C16.6261 19.9999 18.0001 20.9159 18.0001 21.9999C18.0001 23.0839 16.6261 23.9999 15.0001 23.9999ZM26.0021 11.6579C25.9741 12.1259 25.9021 12.5939 25.8001 13.0519C24.3941 10.2299 21.8441 8.75988 20.0001 8.21588V4.54188C20.7841 5.37788 21.6941 6.00388 22.5861 6.59988C23.7841 7.40188 24.9161 8.15988 25.5021 9.36188C25.8701 10.1119 26.0461 10.9299 26.0021 11.6579Z" fill="white"/>
<path d="M13 -0.00012207H1C0.448 -0.00012207 0 0.447878 0 0.999878C0 1.55188 0.448 1.99988 1 1.99988H13C13.552 1.99988 14 1.55188 14 0.999878C14 0.447878 13.552 -0.00012207 13 -0.00012207Z" fill="white"/>
<path d="M13 6H1C0.448 6 0 6.448 0 7C0 7.552 0.448 8 1 8H13C13.552 8 14 7.552 14 7C14 6.448 13.552 6 13 6Z" fill="white"/>
<path d="M7 12.0001H1C0.448 12.0001 0 12.4481 0 13.0001C0 13.5521 0.448 14.0001 1 14.0001H7C7.552 14.0001 8 13.5521 8 13.0001C8 12.4481 7.552 12.0001 7 12.0001Z" fill="white"/>
<path d="M7 18H1C0.448 18 0 18.448 0 19C0 19.552 0.448 20 1 20H7C7.552 20 8 19.552 8 19C8 18.448 7.552 18 7 18Z" fill="white"/>
</g>
</svg>
